<?xml version="1.0" encoding="utf-8"?>
<svg version="1.1" xmlns="http://www.w3.org/2000/svg" xmlns:xlink="http://www.w3.org/1999/xlink" viewBox="0 0 35 35" height="35" width="35">
  <path fill="#adadad" d="M26.25,11.81h-5.83v-1.28h5.83v1.28Zm1.23,8.93c-1.12,3.29-8.68,4.33-8.68-2.27s8.03-6.38,8.83-1.27c.07,.43,.09,1.01,.08,1.82h-6.43c-.15,2.5,2.57,2.82,3.51,1.73h2.69Zm-6.14-3.4h3.83c-.17-2.46-3.44-2.64-3.83,0Zm-8.54,5.94H7.29V10.56h5.91c4.66,.07,4.75,4.63,2.31,5.87,2.94,1.07,3.04,6.86-2.73,6.86Zm-2.76-7.49h2.87c2.13,0,2.47-2.71-.27-2.71h-2.6v2.71Zm2.7,2.12h-2.7v2.84h2.66c2.6,0,2.44-2.84,.04-2.84ZM17.5,2.92c8.04,0,14.58,6.54,14.58,14.58s-6.54,14.58-14.58,14.58S2.92,25.54,2.92,17.5,9.46,2.92,17.5,2.92Zm0-2.92C7.84,0,0,7.84,0,17.5s7.84,17.5,17.5,17.5,17.5-7.84,17.5-17.5S27.16,0,17.5,0Z"/>
</svg>
