<?xml version="1.0" encoding="utf-8"?>
<svg version="1.1" xmlns="http://www.w3.org/2000/svg" xmlns:xlink="http://www.w3.org/1999/xlink" viewBox="0 0 35 35" height="35" width="35">
  <path fill="#adadad" d="M29.6,6.4c-2.2-1-4.6-1.8-7.1-2.2c0,0-0.1,0-0.1,0c-0.3,0.6-0.6,1.3-0.9,1.8c-2.7-0.4-5.4-0.4-8,0c-0.2-0.6-0.6-1.3-0.9-1.8
    c0,0-0.1-0.1-0.1,0C10,4.6,7.6,5.3,5.4,6.4c0,0,0,0-0.1,0c-4.5,6.8-5.8,13.4-5.2,19.9c0,0,0,0.1,0,0.1c3,2.2,5.9,3.5,8.7,4.4
    c0.1,0,0.1,0,0.1,0c0.7-0.9,1.3-1.9,1.8-2.9c0-0.1,0-0.1-0.1-0.1c-0.9-0.4-1.9-0.8-2.7-1.3c-0.1,0-0.1-0.1,0-0.2
    c0.2-0.1,0.4-0.3,0.5-0.4c0,0,0.1,0,0.1,0c5.7,2.6,11.9,2.6,17.6,0c0,0,0.1,0,0.1,0c0.2,0.1,0.4,0.3,0.5,0.4c0.1,0,0.1,0.1,0,0.2
    c-0.9,0.5-1.8,0.9-2.7,1.3c-0.1,0-0.1,0.1-0.1,0.2c0.5,1,1.1,2,1.8,2.9c0,0,0.1,0.1,0.1,0c2.9-0.9,5.8-2.2,8.8-4.4c0,0,0,0,0-0.1
    C35.6,18.8,33.6,12.2,29.6,6.4C29.7,6.4,29.7,6.4,29.6,6.4L29.6,6.4z M11.7,22.4c-1.7,0-3.2-1.6-3.2-3.5s1.4-3.5,3.1-3.5
    s3.2,1.6,3.1,3.5C14.9,20.8,13.5,22.4,11.7,22.4z M23.3,22.4c-1.7,0-3.1-1.6-3.1-3.5s1.4-3.5,3.1-3.5s3.2,1.6,3.1,3.5
    C26.5,20.8,25.1,22.4,23.3,22.4z"/>
</svg>
