<?xml version="1.0" encoding="utf-8"?>
<svg version="1.1" xmlns="http://www.w3.org/2000/svg" xmlns:xlink="http://www.w3.org/1999/xlink" viewBox="0 0 35 35" height="35" width="35">
  <g fill="#adadad">
    <path d="M6.03,.92C3.69,1.83,1.83,3.68,.92,6.03,.41,7.38,.13,8.82,.11,10.27c-.09,1.86-.11,2.46-.11,7.21s.02,5.34,.11,7.21c.03,1.45,.3,2.88,.81,4.24,.91,2.35,2.77,4.21,5.12,5.12,1.36,.51,2.79,.78,4.24,.81,1.86,.09,2.46,.11,7.21,.11s5.34-.02,7.21-.11c1.45-.03,2.88-.3,4.24-.81,2.35-.91,4.21-2.77,5.12-5.12,.51-1.36,.78-2.79,.81-4.24,.09-1.86,.11-2.46,.11-7.21s-.02-5.34-.11-7.21c-.03-1.45-.3-2.88-.81-4.24-.91-2.35-2.76-4.2-5.11-5.11-1.36-.51-2.79-.78-4.24-.81-1.86-.09-2.46-.11-7.21-.11s-5.34,.02-7.21,.11c-1.45,.02-2.89,.3-4.25,.81ZM24.54,3.25c1.11,.01,2.21,.22,3.25,.6,1.53,.59,2.73,1.79,3.32,3.32,.39,1.04,.59,2.14,.6,3.25,.09,1.84,.1,2.39,.1,7.06s-.02,5.22-.1,7.06c-.01,1.11-.22,2.21-.6,3.25-.59,1.53-1.79,2.73-3.32,3.32-1.04,.39-2.14,.59-3.25,.6-1.84,.09-2.39,.1-7.06,.1s-5.22-.02-7.06-.1c-1.11-.01-2.21-.22-3.25-.6-1.53-.59-2.73-1.79-3.32-3.32-.39-1.04-.59-2.14-.6-3.25-.09-1.84-.1-2.39-.1-7.06s.02-5.22,.1-7.06c.01-1.11,.22-2.21,.6-3.25,.59-1.53,1.79-2.73,3.32-3.32,1.04-.39,2.14-.59,3.25-.6,1.84-.09,2.39-.1,7.06-.1s5.22,.01,7.06,.1h0Z"/>
    <path class="g" d="M9.65,17.48c0,4.32,3.51,7.83,7.83,7.83s7.83-3.51,7.83-7.83-3.51-7.83-7.83-7.83-7.83,3.51-7.83,7.83h0Zm12.91,0c0,2.81-2.28,5.08-5.08,5.08s-5.08-2.28-5.08-5.08,2.28-5.08,5.08-5.08c2.81,0,5.08,2.28,5.08,5.08h0s0,0,0,0Z"/>
    <circle cx="26.65" cy="8.32" r="2.38"/>
  </g>
</svg>
