<?xml version="1.0" encoding="utf-8"?>
<svg version="1.1" xmlns="http://www.w3.org/2000/svg" xmlns:xlink="http://www.w3.org/1999/xlink" viewBox="0 0 35 35" height="35" width="35">
  <path fill="#adadad" d="M32.64,0H2.36C1.07,0,0,1.04,0,2.34v30.32c0,1.3,1.07,2.34,2.36,2.34h30.27c1.3,0,2.35-1.04,2.36-2.34V2.34C34.99,1.04,33.93,0,32.64,0ZM10.21,29.17H4.38V13.13h5.83V29.17ZM7.29,10.75c-1.58-.12-2.77-1.49-2.66-3.07,.12-1.58,1.49-2.77,3.07-2.66,1.5,.11,2.66,1.36,2.66,2.86-.06,1.64-1.44,2.92-3.08,2.86ZM30.62,29.17h-5.83v-8.75c0-2.7-1.22-3.57-2.92-3.57-1.5,0-2.92,1.19-2.92,3.57v8.75h-5.83V13.13h5.83v1.9c1.17-1.64,3.09-2.58,5.1-2.48,5.24,0,6.56,4.37,6.56,7.87v8.75Z"/>
</svg>
