<?xml version="1.0" encoding="utf-8"?>
<svg version="1.1" xmlns="http://www.w3.org/2000/svg" xmlns:xlink="http://www.w3.org/1999/xlink" viewBox="0 0 35 35" height="35" width="35">
  <g fill="#adadad">
    <path d="M32.74,2.27c-3.03-3.03-7.93-3.03-10.96,0-.42,.42-4.6,4.56-5.78,5.73,1.38-.1,2.76,.13,4.04,.65,.56-.56,3.85-3.81,4.08-4.04,1.73-1.73,4.53-1.73,6.26,0,1.73,1.73,1.73,4.53,0,6.26l-7.69,7.68c-.97,.94-2.29,1.45-3.65,1.4-1.09-.01-2.13-.44-2.92-1.2-.59-.46-1.05-1.06-1.34-1.75-.17,.09-.32,.21-.46,.34l-1.76,1.85c.35,.66,.8,1.27,1.32,1.8,3.37,2.88,8.4,2.68,11.52-.47l7.3-7.31c3.02-3.02,3.03-7.93,0-10.95,0,0,0,0,0,0h0Z"/>
    <path d="M14.9,26.32c-.56,.56-3.78,3.83-4.01,4.06-1.73,1.73-4.53,1.73-6.26,0-1.73-1.73-1.73-4.53,0-6.26l7.76-7.76c.97-.94,2.28-1.45,3.63-1.39,1.85,.08,3.46,1.26,4.08,3,.17-.09,.32-.21,.46-.34l1.87-1.86c-.35-.66-.8-1.27-1.32-1.81-3.09-3.02-8.03-2.99-11.08,.05l-7.76,7.76c-3.03,3.03-3.03,7.93,0,10.96,3.03,3.03,7.93,3.03,10.96,0,.42-.42,4.52-4.58,5.7-5.75-1.38,.1-2.76-.13-4.04-.65h.01Z"/>
  </g>
</svg>
