<?xml version="1.0" encoding="utf-8"?>
<svg version="1.1" xmlns="http://www.w3.org/2000/svg" xmlns:xlink="http://www.w3.org/1999/xlink" viewBox="0 0 35 35" height="35" width="35">
  <path fill="#adadad" d="M17.5,0C7.83,0,0,7.83,0,17.5s7.83,17.5,17.5,17.5,17.5-7.83,17.5-17.5S27.17,0,17.5,0Zm0,3.5c7.73,0,14,6.27,14,14s-6.27,14-14,14c-1.29,0-2.53-.19-3.71-.51,.37-.75,.71-1.54,.89-2.24,.2-.77,1.03-3.91,1.03-3.91,.54,1.02,2.1,1.89,3.77,1.89,4.96,0,8.53-4.56,8.53-10.23s-4.43-9.5-10.14-9.5c-7.1,0-10.86,4.76-10.86,9.95,0,2.41,1.28,5.41,3.34,6.37,.31,.15,.48,.08,.55-.22,.06-.23,.33-1.35,.46-1.87,.04-.16,.02-.31-.11-.47-.68-.82-1.22-2.34-1.22-3.75,0-3.63,2.75-7.14,7.42-7.14,4.04,0,6.87,2.75,6.87,6.69,0,4.45-2.25,7.53-5.17,7.53-1.61,0-2.83-1.33-2.44-2.97,.46-1.95,1.36-4.07,1.36-5.48,0-1.26-.67-2.31-2.08-2.31-1.65,0-2.98,1.7-2.98,3.99,0,1.46,.49,2.44,.49,2.44,0,0-1.63,6.89-1.93,8.17-.15,.63-.2,1.38-.2,2.13-4.65-2.28-7.86-7.04-7.86-12.57,0-7.73,6.27-14,14-14Z"/>
</svg>
