<?xml version="1.0" encoding="utf-8"?>
<svg version="1.1" xmlns="http://www.w3.org/2000/svg" xmlns:xlink="http://www.w3.org/1999/xlink" viewBox="0 0 35 35" height="35" width="35">
  <path fill="#adadad" d="M35,6.7c-1.3,0.6-2.7,1-4.1,1.1c1.5-0.9,2.6-2.3,3.2-4c-1.4,0.8-3,1.4-4.6,1.8
    c-2.7-2.9-7.3-3-10.2-0.3c-1.9,1.8-2.7,4.4-2.1,6.9c-5.8-0.3-11.2-3-14.8-7.5c-1.9,3.3-0.9,7.5,2.2,9.6c-1.1,0-2.3-0.3-3.3-0.9
    c0,0,0,0.1,0,0.1c0,3.4,2.4,6.4,5.8,7c-1.1,0.3-2.2,0.3-3.2,0.1c0.9,2.9,3.6,4.9,6.7,5c-3,2.4-6.8,3.4-10.6,3
    c9.5,6.1,22.1,3.3,28.2-6.2c2.1-3.3,3.2-7.1,3.2-11c0-0.3,0-0.6,0-0.9C32.8,9.4,34,8.1,35,6.7z"/>
</svg>
