<?xml version="1.0" encoding="utf-8"?>
<svg version="1.1" xmlns="http://www.w3.org/2000/svg" xmlns:xlink="http://www.w3.org/1999/xlink" viewBox="0 0 35 35" height="35" width="35">
  <g fill="#adadad">
    <path d="M30.8,6.18C28.13,2.98,24.68,1.01,20.58,.29c-4.89-.86-9.4,.18-13.43,3.11C3.64,5.96,1.44,9.4,.42,13.6c-.21,.85-.36,1.71-.39,2.59,0,.06-.03,.16-.03,.16v2.3s0,.02,0,.04c.03,.32,.06,.65,.08,.96,.2,1.61,.64,3.15,1.27,4.64,1.52,3.61,4,6.36,7.35,8.34,1.96,1.16,4.08,1.92,6.34,2.2,5.9,.74,10.94-1.04,15.09-5.27,2.44-2.48,3.96-5.48,4.56-8.9,.96-5.41-.36-10.27-3.89-14.48Zm.82,11.46c-.04,7.94-6.44,14.3-14.4,14.23-7.85-.07-14.11-6.49-14.09-14.25,.03-8.15,6.55-14.24,14.22-14.25,7.9-.02,14.27,6.36,14.28,14.27h-.01Z"/>
    <path d="M26.07,16.83c-.1-.06-.17-.12-.25-.17-3.31-2.05-6.63-4.08-9.95-6.11-.78-.47-1.59-.92-2.37-1.39-.7-.4-1.35,.04-1.4,.8-.02,.36-.04,.74-.04,1.1l.03,13.17c0,.43,.01,.85,.07,1.27,.1,.62,.68,.91,1.22,.62,.34-.18,.66-.36,.98-.56,3.23-1.96,6.47-3.91,9.69-5.87,.67-.4,1.32-.83,1.98-1.26,.2-.13,.41-.28,.47-.56,.11-.49-.02-.79-.43-1.06Zm-11.76,5.33V12.87c0-.28,.32-.45,.58-.3l8.24,4.77c.24,.14,.24,.47,0,.61l-8.24,4.52c-.25,.14-.57-.03-.57-.31Z"/>
  </g>
</svg>
