<?xml version="1.0" encoding="utf-8"?>
<svg version="1.1" xmlns="http://www.w3.org/2000/svg" xmlns:xlink="http://www.w3.org/1999/xlink" viewBox="0 0 35 35" height="35" width="35">
  <path fill="#adadad" d="M34.3,9.1L34.3,9.1c-0.4-1.5-1.6-2.7-3.1-3.1c-2.7-0.7-13.7-0.7-13.7-0.7S6.6,5.2,3.8,5.9
	C2.3,6.4,1.1,7.5,0.7,9.1C0,11.8,0,17.5,0,17.5s0,5.7,0.7,8.5c0.4,1.5,1.6,2.7,3.1,3.1c2.7,0.7,13.7,0.7,13.7,0.7s10.9,0,13.7-0.7
	c1.5-0.4,2.7-1.6,3.1-3.1c0.7-2.8,0.7-8.5,0.7-8.5S35,11.8,34.3,9.1z M13.9,22.7V12.3l9.1,5.2C23.1,17.5,13.9,22.7,13.9,22.7z"/>
</svg>
